<svg width="41" height="40" viewBox="0 0 41 40" fill="none" xmlns="http://www.w3.org/2000/svg">
<path d="M23.9473 19.111C24.0031 19.1669 24.031 19.231 24.031 19.3036C24.031 19.3761 24.0031 19.4403 23.9473 19.4961L20.0467 23.3968C19.9909 23.4526 19.9267 23.4805 19.8541 23.4805C19.7816 23.4805 19.7174 23.4526 19.6616 23.3968L15.761 19.4961C15.7051 19.4403 15.6772 19.3761 15.6772 19.3036C15.6772 19.231 15.7051 19.1669 15.761 19.111L16.1795 18.6925C16.2353 18.6367 16.2995 18.6088 16.372 18.6088C16.4445 18.6088 16.5087 18.6367 16.5645 18.6925L19.8541 21.9821L23.1438 18.6925C23.1996 18.6367 23.2637 18.6088 23.3363 18.6088C23.4088 18.6088 23.473 18.6367 23.5288 18.6925L23.9473 19.111Z" fill="white"/>
<path opacity="0.7" d="M20.0439 0.5C30.8385 0.500175 39.5869 9.23158 39.5869 20C39.5869 30.7684 30.8385 39.4998 20.0439 39.5C9.24927 39.5 0.5 30.7685 0.5 20C0.5 9.23147 9.24927 0.5 20.0439 0.5Z" stroke="white"/>
</svg>
